<?xml version="1.0" encoding="UTF-8" standalone="no"?>
<svg
   xmlns:dc="http://purl.org/dc/elements/1.1/"
   xmlns:cc="http://creativecommons.org/ns#"
   xmlns:rdf="http://www.w3.org/1999/02/22-rdf-syntax-ns#"
   xmlns:svg="http://www.w3.org/2000/svg"
   xmlns="http://www.w3.org/2000/svg"
   class=""
   height="512px"
   width="512px"
   xml:space="preserve"
   style="enable-background:new 0 0 175.099 175.099;"
   viewBox="0 0 175.099 175.099"
   y="0px"
   x="0px"
   id="Capa_1"
   version="1.1"><metadata
     id="metadata17"><rdf:RDF><cc:Work
         rdf:about=""><dc:format>image/svg+xml</dc:format><dc:type
           rdf:resource="http://purl.org/dc/dcmitype/StillImage" /></cc:Work></rdf:RDF></metadata><defs
     id="defs15" /><g
     id="g10"><g
       id="XMLID_30_"><path
         fill="#fff"
         data-old_color="#fff"
         class="active-path"
         data-original="#fff"
         d="M106.263,151.639c2.297-0.028,5.322,2.069,5.909,4.015   c0.405,1.343,0.184,2.193-1.491,1.831c-2.645-0.572-5.226-1.367-7.756-2.324c-1.482-0.561-1.303-1.321-0.18-2.097   C103.84,152.309,105.085,151.899,106.263,151.639z"
         id="XMLID_187_" /><g
         id="XMLID_32_"><path
           fill="#fff"
           data-old_color="#fff"
           class="active-path"
           data-original="#020400"
           d="M123.9,135.699c1.785,0.015,2.568-0.688,2.504-2.488    c-0.069-1.943-0.04-3.891-0.005-5.835c0.028-1.521-0.581-2.335-2.186-2.332c-12.061,0.027-24.121,0.046-36.182,0.044    c-1.62,0-2.21,0.806-2.18,2.324c0.036,1.789,0.097,3.585-0.013,5.367c-0.13,2.089,0.646,2.93,2.813,2.891    c5.756-0.103,11.515-0.035,17.274-0.035c0,0.015,0,0.03,0,0.044C111.917,135.68,117.909,135.648,123.9,135.699z M122.465,127.382    c0.107-0.736,0.542-1.342,1.372-1.341c0.817,0.001,1.272,0.574,1.398,1.321c0.352,2.079,0.306,4.173,0.069,6.26    c-0.092,0.806-0.605,1.221-1.436,1.215c-0.811-0.006-1.365-0.38-1.461-1.194c-0.118-0.999-0.139-2.009-0.211-3.14    C122.274,129.54,122.31,128.452,122.465,127.382z M118.075,127.361c0.095-0.745,0.533-1.316,1.38-1.294    c0.718,0.019,1.166,0.505,1.262,1.158c0.315,2.154,0.27,4.323,0.05,6.483c-0.072,0.71-0.573,1.062-1.289,1.083    c-0.817,0.024-1.385-0.33-1.432-1.17c-0.061-1.079-0.015-2.165-0.015-3.248c-0.045-0.001-0.09-0.002-0.135-0.003    C117.949,129.367,117.947,128.355,118.075,127.361z M113.534,127.366c0.111-0.734,0.543-1.332,1.385-1.315    c0.842,0.017,1.231,0.621,1.315,1.372c0.112,1,0.133,2.01,0.158,2.432c0,1.665,0.058,2.75-0.019,3.825    c-0.059,0.832-0.66,1.161-1.466,1.159c-0.829-0.001-1.351-0.405-1.431-1.214C113.269,131.539,113.22,129.444,113.534,127.366z     M109.121,127.564c0.052-0.84,0.444-1.522,1.404-1.526c0.835-0.003,1.316,0.609,1.344,1.335c0.081,2.078,0.079,4.161,0.028,6.24    c-0.02,0.801-0.57,1.22-1.405,1.209c-0.831-0.011-1.33-0.42-1.37-1.242c-0.048-1.001-0.011-2.005-0.014-3.008    C109.107,129.569,109.059,128.563,109.121,127.564z M89.65,133.367c-0.023,0.885-0.381,1.479-1.383,1.505    c-0.944,0.024-1.524-0.406-1.542-1.339c-0.039-2.017-0.049-4.037,0.03-6.053c0.032-0.826,0.504-1.526,1.462-1.5    c0.947,0.025,1.349,0.717,1.399,1.563c0.059,1.006,0.014,2.018,0.014,3.027c0.009,0,0.017,0,0.026,0    C89.655,131.503,89.674,132.436,89.65,133.367z M94.163,133.602c-0.087,0.941-0.692,1.306-1.604,1.283    c-0.844-0.021-1.286-0.456-1.38-1.261c-0.243-2.085-0.282-4.174,0.038-6.252c0.13-0.841,0.607-1.454,1.552-1.404    c0.826,0.044,1.249,0.647,1.344,1.377c0.141,1.071,0.152,2.158,0.21,3.103C94.269,131.594,94.255,132.601,94.163,133.602z     M98.498,133.578c-0.035,0.816-0.505,1.248-1.344,1.273c-0.806,0.024-1.4-0.287-1.484-1.119c-0.217-2.153-0.259-4.317,0.038-6.465    c0.102-0.735,0.582-1.294,1.413-1.271c0.826,0.022,1.283,0.585,1.338,1.337c0.079,1.074,0.02,2.157,0.02,3.237    c0.009,0,0.019,0,0.028,0C98.509,131.573,98.541,132.577,98.498,133.578z M103.048,133.563c-0.083,0.929-0.663,1.332-1.582,1.281    c-0.848-0.047-1.273-0.546-1.284-1.336c-0.027-2.001-0.038-4.005,0.026-6.005c0.027-0.835,0.472-1.517,1.427-1.492    c0.942,0.025,1.34,0.736,1.407,1.552c0.081,0.994,0.019,1.999,0.019,3c0.043,0,0.087,0.001,0.13,0.002    C103.147,131.565,103.138,132.568,103.048,133.563z M104.534,133.356c-0.037-1.935-0.041-3.873,0.039-5.806    c0.034-0.821,0.476-1.538,1.433-1.526c0.963,0.012,1.325,0.727,1.371,1.567c0.055,1.004,0.013,2.013,0.013,3.02    c0.005,0,0.01,0,0.015,0c0,0.93,0.025,1.86-0.007,2.789c-0.031,0.904-0.469,1.438-1.445,1.437    C104.95,134.834,104.55,134.21,104.534,133.356z"
           id="XMLID_51_" /><path
           fill="#fff"
           data-old_color="#fff"
           class="active-path"
           data-original="#fff"
           d="M113.858,89.114c-3.334-1.393-6.327-3.038-7.768-6.916    c-1.456,4.111-4.786,5.626-8.183,7.119c-3.218,1.415-6.233,3.201-8.906,5.506c-7.837,6.756-8.401,15.646-4.431,24.384    c0.557,1.225,1.439,1.94,2.896,1.94c12.372-0.006,24.745,0.016,37.117,0.047c1.286,0.003,2.287-0.42,2.872-1.599    c3.254-6.554,4.317-15.612-1.967-22.464C122.209,93.554,118.276,90.961,113.858,89.114z"
           id="XMLID_137_" /><path
           fill="#fff"
           data-old_color="#fff"
           class="active-path"
           data-original="#fff"
           d="M127.69,132.918c0.408,1.538,1.202,2.472,2.903,2.454    c2.407-0.026,4.815-0.007,7.223-0.007c0-0.009,0-0.019,0-0.028c2.255,0,4.512-0.055,6.765,0.017    c1.903,0.06,2.805-0.859,3.224-2.636c0.975-4.124-0.342-7.267-4.11-9.752c-1.8-1.188-4.087-1.609-5.456-3.478    c-0.278-0.379-0.686-0.398-0.981-0.023c-1.569,1.998-4.131,2.407-6.071,3.826C127.912,125.686,126.662,129.045,127.69,132.918z"
           id="XMLID_138_" /><path
           fill="#fff"
           data-old_color="#fff"
           class="active-path"
           data-original="#fff"
           d="M124.069,124.033c0.85-0.006,2.299,0.369,2.312-0.842    c0.016-1.433-1.512-0.838-2.411-1.021c-0.075-0.015-0.155-0.005-0.233-0.004c-11.803,0.014-23.605,0.025-35.407,0.048    c-0.617,0.001-1.242,0.052-1.85,0.156c-0.394,0.067-0.721,0.336-0.687,0.8c0.033,0.453,0.376,0.684,0.778,0.726    c0.693,0.072,1.393,0.104,2.09,0.105c5.824,0.008,11.647,0.004,17.471,0.004c0,0.016,0,0.032,0,0.049    C112.111,124.054,118.09,124.073,124.069,124.033z"
           id="XMLID_140_" /><path
           fill="#fff"
           data-old_color="#fff"
           class="active-path"
           data-original="#020400"
           d="M149.691,157.007c-2.912,0.869-3.184,0.62-3.194-2.497    c-0.016-5.058,0.013-10.116-0.009-15.174c-0.012-2.818-0.223-3.003-3.111-3.028c-1.945-0.017-3.891-0.013-5.836,0.005    c-2.906,0.026-3.088,0.186-3.097,3.027c-0.017,5.68,0.014,11.361-0.015,17.041c-0.004,0.847,0.286,1.831-0.561,2.576    c-0.751-0.737-0.507-1.556-0.516-2.291c-0.033-2.879-0.012-5.758-0.015-8.637c-0.005-3.794-0.007-3.803-3.713-3.799    c-14.862,0.016-29.725,0.045-44.587,0.037c-0.906,0-2.005,0.386-2.804-0.776c1.08-0.578,2.103-0.384,3.079-0.383    c14.94,0.006,29.88,0.035,44.821,0.03c1.034,0,2.262,0.368,2.952-0.842c1.551-2.717-0.15-5.627-3.29-5.624    c-15.251,0.014-30.503,0.036-45.754,0.062c-4.011,0.007-4.008,0.02-4.802,3.826c-0.018,0.085-0.24,0.128-0.8,0.403    c0.521-3.547-1.552-4.661-4.642-4.929c2.579-0.4,4.963-0.493,7.335-0.372c2.029,0.104,3.008-0.822,3.401-2.7    c0.752-3.594-0.091-6.561-3.044-8.938c-2.069-1.666-4.898-2.086-6.654-4.221c-0.238-0.289-0.593-0.135-0.814,0.116    c-1.957,2.226-5.124,2.605-7.172,4.713c-0.489,0.504-0.976,1.449-1.899,0.939c-0.77-0.426-0.653-1.342-0.694-2.115    c-0.062-1.161,0.041-2.361-0.225-3.473c-0.338-1.412-2.091-0.525-2.968-1.369c2.822-1.509,3.479-2.827,2.607-5.02    c-0.774-1.948-3.988-4.055-6.106-3.886c-0.604,0.048-1.047,0.104-1.381-0.475c-0.924-1.597-1.203-3.544-0.539-5.009    c3.29-7.258,2.68-11.027-3.203-16.299c-0.905-0.811-1.261-1.702-1.269-2.852c-0.03-4.122-0.084-8.234,0.379-12.352    c3.855-34.298,29.83-62.148,63.795-68.278c3.125-0.564,6.295-0.875,10.098-1.393C89.407-7.178,43.1,8.16,23.198,51.446    c-18.992,41.307-2.076,91.511,38.03,113.046c15.97,8.575,32.997,12.063,50.955,10.054c18.482-2.068,42.601-12.872,47.505-20.749    C156.322,154.884,153.026,156.012,149.691,157.007z"
           id="XMLID_141_" /></g></g></g></svg>